<svg xmlns="http://www.w3.org/2000/svg" width="120" height="120" viewBox="667.19 5.28 86.90 85.35" preserveAspectRatio="xMidYMid meet">
  <g transform="translate(-69.069 -70.34)">
    <path d="m758.74 110.36c2.15 0 4.43-1.25 6.84-3.74 1.29-1.29 1.94-2.41 1.94-3.36 0-1.12-1.04-1.68-3.1-1.68-2.41 0-4.44 1.08-6.07 3.23-0.86 1.03-1.29 2.11-1.29 3.23 0 1.55 0.56 2.32 1.68 2.32m-2.2-28.272c0.17 0 0.6-0.043 1.29-0.129 3.88 0 8.01 1.291 12.4 3.873 0.51 0.344 0.77 0.516 0.77 0.516 2.5-4.045 4.39-6.067 5.68-6.067 2.76 1.549 4.56 3.227 5.42 5.035 0.43 0.86 1.08 2.668 1.94 5.422 0.69-0.172 1.38-0.258 2.07-0.258 7.23 0 14.11 4.432 20.65 13.3 7.83 10.24 11.75 24.18 11.75 41.83 0 3.95-0.17 7.53-0.52 10.71h-54.48c0.18-5.77 2.28-11.23 6.33-16.4 0.43-0.68 1.03-1.46 1.81-2.32 3.18-4.04 5.12-7.14 5.81-9.29 0.34-1.12 0.6-2.28 0.77-3.49-5.68 2.24-9.94 5.55-12.78 9.94-1.29 2.15-2.71 4.39-4.26 6.71-0.43 0.69-1.08 1.04-1.94 1.04-2.15 0-3.22-1.34-3.22-4.01-0.87 1.12-1.86 1.68-2.97 1.68 0 0-0.86-0.21-2.59-0.64-3.7-0.95-6.32-2.58-7.87-4.91-0.52-0.77-1.08-1.81-1.68-3.1 0.6-3.7 3.57-11.06 8.91-22.07 3.87-7.92 6.28-13.601 7.23-17.044 0.08-0.774 0.13-1.893 0.13-3.356 0-1.205-0.22-3.529-0.65-6.972m-7.74 45.312c-2.07 0-3.45 0.91-4.14 2.71-0.17 0.43-0.25 0.86-0.25 1.29 0 0.35 0.13 0.78 0.38 1.3 2.24 0 3.62-0.95 4.13-2.84 0.09-0.26 0.13-0.56 0.13-0.91 0-0.17-0.08-0.69-0.25-1.55m63.38 19.88v-4.77c0-14.03-3.57-25.52-10.71-34.47-6.2-7.75-11.84-11.622-16.91-11.622 0 0-0.52-0.086-1.55-0.258-0.17 0.086-0.3 0.172-0.39 0.258-1.12 0-1.68 0.474-1.68 1.42 0 0.345 0.26 0.775 0.78 1.291 4.64 0.431 9.72 3.741 15.23 9.941 6.97 8.09 10.46 19.8 10.46 35.12v0.77c0 3.79 0.81 5.68 2.45 5.68 1.38 0 2.15-1.12 2.32-3.36" fill="#f6ead9"/>
  </g>
</svg>
